<mxfile host="app.diagrams.net" agent="Mozilla/5.0 (Windows NT 10.0; Win64; x64) AppleWebKit/537.36 (KHTML, like Gecko) Chrome/139.0.0.0 Safari/537.36" version="28.2.0">
  <diagram name="Halaman-1" id="Xwe7sBgI8JZgK7nuaXWO">
    <mxGraphModel dx="2036" dy="1838" grid="1" gridSize="10" guides="1" tooltips="1" connect="1" arrows="1" fold="1" page="1" pageScale="1" pageWidth="827" pageHeight="1169" math="0" shadow="0">
      <root>
        <mxCell id="0" />
        <mxCell id="1" parent="0" />
        <mxCell id="T4MmilMiT0-tr1rLzZQM-1" value="&lt;p&gt;&lt;b&gt;&lt;font style=&quot;font-size: 25px;&quot;&gt;High Level Arsitektur&lt;/font&gt;&lt;/b&gt;&lt;/p&gt;" style="text;strokeColor=none;fillColor=none;html=1;align=center;verticalAlign=middle;whiteSpace=wrap;rounded=0;fontSize=16;" vertex="1" parent="1">
          <mxGeometry width="270" height="60" as="geometry" />
        </mxCell>
        <mxCell id="T4MmilMiT0-tr1rLzZQM-2" value="" style="rounded=0;whiteSpace=wrap;html=1;strokeColor=default;fillColor=none;dashed=1;dashPattern=8 8;" vertex="1" parent="1">
          <mxGeometry x="-30" y="70" width="150" height="720" as="geometry" />
        </mxCell>
        <mxCell id="T4MmilMiT0-tr1rLzZQM-5" value="&lt;font style=&quot;color: light-dark(rgb(0, 0, 0), rgb(0, 0, 0)); font-size: 20px;&quot;&gt;Source&lt;/font&gt;" style="rounded=0;whiteSpace=wrap;html=1;fillColor=light-dark(#FFFFFF,#FFFFFF);" vertex="1" parent="1">
          <mxGeometry x="2.2699999999999996" y="60" width="80" height="30" as="geometry" />
        </mxCell>
        <mxCell id="T4MmilMiT0-tr1rLzZQM-6" value="" style="rounded=0;whiteSpace=wrap;html=1;strokeColor=default;fillColor=none;dashed=1;dashPattern=8 8;fontStyle=1" vertex="1" parent="1">
          <mxGeometry x="150" y="70" width="810" height="720" as="geometry" />
        </mxCell>
        <mxCell id="T4MmilMiT0-tr1rLzZQM-8" value="&lt;font style=&quot;color: light-dark(rgb(0, 0, 0), rgb(0, 0, 0)); font-size: 20px;&quot;&gt;Data Warehouse&lt;/font&gt;" style="rounded=0;whiteSpace=wrap;html=1;fillColor=light-dark(#FFFFFF,#FFFFFF);" vertex="1" parent="1">
          <mxGeometry x="472.5" y="50" width="165" height="40" as="geometry" />
        </mxCell>
        <mxCell id="T4MmilMiT0-tr1rLzZQM-9" value="" style="rounded=0;whiteSpace=wrap;html=1;strokeColor=default;fillColor=none;dashed=1;dashPattern=8 8;" vertex="1" parent="1">
          <mxGeometry x="990" y="70" width="120" height="720" as="geometry" />
        </mxCell>
        <mxCell id="T4MmilMiT0-tr1rLzZQM-10" value="&lt;font style=&quot;color: light-dark(rgb(0, 0, 0), rgb(0, 0, 0)); font-size: 16px;&quot;&gt;Consume&lt;/font&gt;" style="rounded=0;whiteSpace=wrap;html=1;fillColor=light-dark(#FFFFFF,#FFFFFF);" vertex="1" parent="1">
          <mxGeometry x="1010" y="55" width="80" height="30" as="geometry" />
        </mxCell>
        <mxCell id="T4MmilMiT0-tr1rLzZQM-11" value="&lt;font style=&quot;color: light-dark(rgb(0, 0, 0), rgb(0, 0, 0)); font-size: 17px;&quot;&gt;&lt;b style=&quot;&quot;&gt;Bronse Layer&lt;/b&gt;&lt;/font&gt;" style="rounded=0;whiteSpace=wrap;html=1;fontColor=#ffffff;fillColor=#A0522D;strokeColor=#6D1F00;" vertex="1" parent="1">
          <mxGeometry x="180" y="120" width="160" height="30" as="geometry" />
        </mxCell>
        <mxCell id="T4MmilMiT0-tr1rLzZQM-12" value="z" style="rounded=0;whiteSpace=wrap;html=1;fontColor=#ffffff;fillColor=none;strokeColor=#6D1F00;dashed=1;dashPattern=8 8;" vertex="1" parent="1">
          <mxGeometry x="180" y="160" width="160" height="610" as="geometry" />
        </mxCell>
        <mxCell id="T4MmilMiT0-tr1rLzZQM-13" value="&lt;font style=&quot;color: light-dark(rgb(0, 0, 0), rgb(0, 0, 0)); font-size: 17px;&quot;&gt;&lt;b style=&quot;&quot;&gt;Silver Layer&lt;/b&gt;&lt;/font&gt;" style="rounded=0;whiteSpace=wrap;html=1;fillColor=light-dark(#EEEEEE,#B8B8BC);strokeColor=#36393d;" vertex="1" parent="1">
          <mxGeometry x="475" y="120" width="160" height="30" as="geometry" />
        </mxCell>
        <mxCell id="T4MmilMiT0-tr1rLzZQM-14" value="" style="rounded=0;whiteSpace=wrap;html=1;fillColor=none;strokeColor=#36393d;dashed=1;dashPattern=8 8;" vertex="1" parent="1">
          <mxGeometry x="475" y="160" width="160" height="610" as="geometry" />
        </mxCell>
        <mxCell id="T4MmilMiT0-tr1rLzZQM-15" value="&lt;font style=&quot;color: light-dark(rgb(0, 0, 0), rgb(0, 0, 0)); font-size: 17px;&quot;&gt;&lt;b style=&quot;&quot;&gt;Gold Layer&lt;/b&gt;&lt;/font&gt;" style="rounded=0;whiteSpace=wrap;html=1;fillColor=light-dark(#EEEEEE,#FFD966);strokeColor=#36393d;" vertex="1" parent="1">
          <mxGeometry x="750" y="120" width="160" height="30" as="geometry" />
        </mxCell>
        <mxCell id="T4MmilMiT0-tr1rLzZQM-16" value="" style="rounded=0;whiteSpace=wrap;html=1;fillColor=none;strokeColor=light-dark(#36393D,#FFD966);dashed=1;dashPattern=8 8;" vertex="1" parent="1">
          <mxGeometry x="750" y="160" width="160" height="610" as="geometry" />
        </mxCell>
        <mxCell id="T4MmilMiT0-tr1rLzZQM-17" value="&lt;b&gt;&lt;font style=&quot;font-size: 13px;&quot;&gt;CRM&lt;/font&gt;&lt;/b&gt;" style="image;aspect=fixed;html=1;points=[];align=center;fontSize=12;image=img/lib/azure2/general/Folder_Blank.svg;" vertex="1" parent="1">
          <mxGeometry x="7.77" y="206" width="69" height="56.00000000000001" as="geometry" />
        </mxCell>
        <mxCell id="T4MmilMiT0-tr1rLzZQM-20" value="" style="image;aspect=fixed;html=1;points=[];align=center;fontSize=12;image=img/lib/azure2/general/File.svg;" vertex="1" parent="1">
          <mxGeometry x="66.39" y="236" width="32.46" height="40" as="geometry" />
        </mxCell>
        <mxCell id="T4MmilMiT0-tr1rLzZQM-21" value="&lt;b&gt;&lt;font style=&quot;font-size: 14px;&quot;&gt;ERP&lt;/font&gt;&lt;/b&gt;" style="image;aspect=fixed;html=1;points=[];align=center;fontSize=12;image=img/lib/azure2/general/Folder_Blank.svg;" vertex="1" parent="1">
          <mxGeometry x="5.02" y="326" width="69" height="56.00000000000001" as="geometry" />
        </mxCell>
        <mxCell id="T4MmilMiT0-tr1rLzZQM-22" value="" style="image;aspect=fixed;html=1;points=[];align=center;fontSize=12;image=img/lib/azure2/general/File.svg;" vertex="1" parent="1">
          <mxGeometry x="63.64" y="356" width="32.46" height="40" as="geometry" />
        </mxCell>
        <mxCell id="T4MmilMiT0-tr1rLzZQM-26" value="" style="endArrow=none;html=1;rounded=0;fontSize=12;startSize=8;endSize=8;curved=0;strokeColor=default;" edge="1" parent="1">
          <mxGeometry width="50" height="50" relative="1" as="geometry">
            <mxPoint x="-8.86" y="426" as="sourcePoint" />
            <mxPoint x="96.14" y="426" as="targetPoint" />
          </mxGeometry>
        </mxCell>
        <mxCell id="T4MmilMiT0-tr1rLzZQM-27" value="&lt;font style=&quot;font-size: 17px;&quot;&gt;&lt;b style=&quot;&quot;&gt;Object Type&lt;/b&gt;: CSV File&lt;/font&gt;&lt;div&gt;&lt;font style=&quot;font-size: 17px;&quot;&gt;&lt;br&gt;&lt;/font&gt;&lt;/div&gt;&lt;div&gt;&lt;font style=&quot;font-size: 17px;&quot;&gt;&lt;b style=&quot;&quot;&gt;Interface:&lt;/b&gt; File in Folder&lt;/font&gt;&lt;/div&gt;" style="text;strokeColor=none;fillColor=none;html=1;align=center;verticalAlign=middle;whiteSpace=wrap;rounded=0;fontSize=16;" vertex="1" parent="1">
          <mxGeometry x="-20" y="530" width="130" height="20" as="geometry" />
        </mxCell>
        <mxCell id="T4MmilMiT0-tr1rLzZQM-28" value="" style="html=1;verticalLabelPosition=bottom;align=center;labelBackgroundColor=#ffffff;verticalAlign=top;strokeWidth=2;strokeColor=#36393d;shadow=0;dashed=0;shape=mxgraph.ios7.icons.data;fillColor=light-dark(#ffcc99, #d28f70);" vertex="1" parent="1">
          <mxGeometry x="220" y="206" width="80" height="100" as="geometry" />
        </mxCell>
        <mxCell id="T4MmilMiT0-tr1rLzZQM-29" value="" style="html=1;verticalLabelPosition=bottom;align=center;labelBackgroundColor=#ffffff;verticalAlign=top;strokeWidth=2;strokeColor=light-dark(#000000,#000000);shadow=0;dashed=0;shape=mxgraph.ios7.icons.data;fillColor=light-dark(#ffcc99, #b8b8bc);" vertex="1" parent="1">
          <mxGeometry x="515" y="210" width="80" height="100" as="geometry" />
        </mxCell>
        <mxCell id="T4MmilMiT0-tr1rLzZQM-30" value="" style="html=1;verticalLabelPosition=bottom;align=center;labelBackgroundColor=#ffffff;verticalAlign=top;strokeWidth=2;strokeColor=#36393d;shadow=0;dashed=0;shape=mxgraph.ios7.icons.data;fillColor=light-dark(#ffcc99, #ffd966);" vertex="1" parent="1">
          <mxGeometry x="790" y="210" width="80" height="100" as="geometry" />
        </mxCell>
        <mxCell id="T4MmilMiT0-tr1rLzZQM-32" value="" style="shape=flexArrow;endArrow=classic;html=1;rounded=0;fontSize=12;startSize=8;endSize=8;curved=1;strokeColor=light-dark(#000000,#3399FF);fillColor=light-dark(#FFFFFF,#3399FF);" edge="1" parent="1">
          <mxGeometry width="50" height="50" relative="1" as="geometry">
            <mxPoint x="96.1" y="320.72" as="sourcePoint" />
            <mxPoint x="163.83" y="320.0036291329088" as="targetPoint" />
          </mxGeometry>
        </mxCell>
        <mxCell id="T4MmilMiT0-tr1rLzZQM-33" value="" style="shape=flexArrow;endArrow=classic;html=1;rounded=0;fontSize=12;startSize=8;endSize=8;curved=1;strokeColor=light-dark(#000000,#3399FF);fillColor=light-dark(#FFFFFF,#3399FF);" edge="1" parent="1">
          <mxGeometry width="50" height="50" relative="1" as="geometry">
            <mxPoint x="372.27" y="320.7163708670912" as="sourcePoint" />
            <mxPoint x="440" y="320" as="targetPoint" />
          </mxGeometry>
        </mxCell>
        <mxCell id="T4MmilMiT0-tr1rLzZQM-34" value="" style="shape=flexArrow;endArrow=classic;html=1;rounded=0;fontSize=12;startSize=8;endSize=8;curved=1;strokeColor=light-dark(#000000,#3399FF);fillColor=light-dark(#FFFFFF,#3399FF);" edge="1" parent="1">
          <mxGeometry width="50" height="50" relative="1" as="geometry">
            <mxPoint x="652.27" y="320.7163708670912" as="sourcePoint" />
            <mxPoint x="720" y="320" as="targetPoint" />
          </mxGeometry>
        </mxCell>
        <mxCell id="T4MmilMiT0-tr1rLzZQM-35" value="" style="shape=flexArrow;endArrow=classic;html=1;rounded=0;fontSize=12;startSize=8;endSize=8;curved=1;strokeColor=light-dark(#000000,#3399FF);fillColor=light-dark(#FFFFFF,#3399FF);" edge="1" parent="1">
          <mxGeometry width="50" height="50" relative="1" as="geometry">
            <mxPoint x="922.27" y="320.7163708670912" as="sourcePoint" />
            <mxPoint x="990" y="320" as="targetPoint" />
          </mxGeometry>
        </mxCell>
        <mxCell id="T4MmilMiT0-tr1rLzZQM-37" value="" style="endArrow=none;html=1;rounded=0;fontSize=12;startSize=8;endSize=8;curved=0;strokeColor=default;" edge="1" parent="1">
          <mxGeometry width="50" height="50" relative="1" as="geometry">
            <mxPoint x="207.5" y="410" as="sourcePoint" />
            <mxPoint x="312.5" y="410" as="targetPoint" />
          </mxGeometry>
        </mxCell>
        <mxCell id="T4MmilMiT0-tr1rLzZQM-38" value="" style="endArrow=none;html=1;rounded=0;fontSize=12;startSize=8;endSize=8;curved=0;strokeColor=default;" edge="1" parent="1">
          <mxGeometry width="50" height="50" relative="1" as="geometry">
            <mxPoint x="502.5" y="410" as="sourcePoint" />
            <mxPoint x="607.5" y="410" as="targetPoint" />
          </mxGeometry>
        </mxCell>
        <mxCell id="T4MmilMiT0-tr1rLzZQM-39" value="" style="endArrow=none;html=1;rounded=0;fontSize=12;startSize=8;endSize=8;curved=0;strokeColor=default;" edge="1" parent="1">
          <mxGeometry width="50" height="50" relative="1" as="geometry">
            <mxPoint x="777.5" y="410" as="sourcePoint" />
            <mxPoint x="882.5" y="410" as="targetPoint" />
          </mxGeometry>
        </mxCell>
        <mxCell id="T4MmilMiT0-tr1rLzZQM-41" value="&lt;font style=&quot;font-size: 12px;&quot;&gt;&lt;b&gt;Raw Data&lt;/b&gt;&lt;/font&gt;" style="text;strokeColor=none;fillColor=none;html=1;align=center;verticalAlign=middle;whiteSpace=wrap;rounded=0;fontSize=16;" vertex="1" parent="1">
          <mxGeometry x="230" y="326" width="60" height="30" as="geometry" />
        </mxCell>
        <mxCell id="T4MmilMiT0-tr1rLzZQM-42" value="&lt;font style=&quot;font-size: 12px;&quot;&gt;&lt;b&gt;Cleaned, Standardized Data&lt;/b&gt;&lt;/font&gt;" style="text;strokeColor=none;fillColor=none;html=1;align=center;verticalAlign=middle;whiteSpace=wrap;rounded=0;fontSize=16;" vertex="1" parent="1">
          <mxGeometry x="525" y="326" width="60" height="30" as="geometry" />
        </mxCell>
        <mxCell id="T4MmilMiT0-tr1rLzZQM-43" value="&lt;font style=&quot;font-size: 12px;&quot;&gt;&lt;b&gt;Business-Ready Data&lt;/b&gt;&lt;/font&gt;" style="text;strokeColor=none;fillColor=none;html=1;align=center;verticalAlign=middle;whiteSpace=wrap;rounded=0;fontSize=16;" vertex="1" parent="1">
          <mxGeometry x="800" y="326" width="60" height="30" as="geometry" />
        </mxCell>
        <mxCell id="T4MmilMiT0-tr1rLzZQM-45" value="&lt;div style=&quot;text-align: left;&quot;&gt;&lt;b style=&quot;font-size: 10px; background-color: transparent; color: light-dark(rgb(0, 0, 0), rgb(255, 255, 255));&quot;&gt;Object Type&lt;/b&gt;&lt;span style=&quot;font-size: 10px; background-color: transparent; color: light-dark(rgb(0, 0, 0), rgb(255, 255, 255));&quot;&gt;: Tables&lt;/span&gt;&lt;/div&gt;&lt;div style=&quot;text-align: left;&quot;&gt;&lt;font style=&quot;font-size: 10px;&quot;&gt;&lt;br&gt;&lt;/font&gt;&lt;/div&gt;&lt;div style=&quot;text-align: left;&quot;&gt;&lt;span style=&quot;font-size: 10px;&quot;&gt;&lt;b&gt;Load:&amp;nbsp;&lt;/b&gt;&lt;/span&gt;&lt;/div&gt;&lt;div style=&quot;&quot;&gt;&lt;ul&gt;&lt;li style=&quot;text-align: left;&quot;&gt;&lt;span style=&quot;font-size: 10px;&quot;&gt;Batch Processing&lt;/span&gt;&lt;/li&gt;&lt;li style=&quot;text-align: left;&quot;&gt;&lt;span style=&quot;font-size: 10px;&quot;&gt;Full Load&lt;/span&gt;&lt;/li&gt;&lt;li style=&quot;text-align: left;&quot;&gt;&lt;span style=&quot;font-size: 10px;&quot;&gt;Truncate &amp;amp; Insert&lt;/span&gt;&lt;/li&gt;&lt;/ul&gt;&lt;div style=&quot;text-align: left;&quot;&gt;&lt;span style=&quot;font-size: 10px;&quot;&gt;&lt;b&gt;No Transformations&lt;/b&gt;&lt;/span&gt;&lt;/div&gt;&lt;div style=&quot;text-align: left;&quot;&gt;&lt;span style=&quot;font-size: 10px;&quot;&gt;&lt;b&gt;Data Model: &lt;/b&gt;None (as-is)&lt;/span&gt;&lt;/div&gt;&lt;/div&gt;" style="text;strokeColor=none;fillColor=none;html=1;align=center;verticalAlign=middle;whiteSpace=wrap;rounded=0;fontSize=16;" vertex="1" parent="1">
          <mxGeometry x="195" y="530" width="130" height="20" as="geometry" />
        </mxCell>
        <mxCell id="T4MmilMiT0-tr1rLzZQM-46" value="&lt;div style=&quot;text-align: left;&quot;&gt;&lt;b style=&quot;font-size: 10px; background-color: transparent; color: light-dark(rgb(0, 0, 0), rgb(255, 255, 255));&quot;&gt;Object Type&lt;/b&gt;&lt;span style=&quot;font-size: 10px; background-color: transparent; color: light-dark(rgb(0, 0, 0), rgb(255, 255, 255));&quot;&gt;: Tables&lt;/span&gt;&lt;/div&gt;&lt;div style=&quot;text-align: left;&quot;&gt;&lt;font style=&quot;font-size: 10px;&quot;&gt;&lt;br&gt;&lt;/font&gt;&lt;/div&gt;&lt;div style=&quot;text-align: left;&quot;&gt;&lt;span style=&quot;font-size: 10px;&quot;&gt;&lt;b&gt;Load:&amp;nbsp;&lt;/b&gt;&lt;/span&gt;&lt;/div&gt;&lt;div style=&quot;&quot;&gt;&lt;ul&gt;&lt;li style=&quot;text-align: left;&quot;&gt;&lt;span style=&quot;font-size: 10px;&quot;&gt;Batch Processing&lt;/span&gt;&lt;/li&gt;&lt;li style=&quot;text-align: left;&quot;&gt;&lt;span style=&quot;font-size: 10px;&quot;&gt;Full Load&lt;/span&gt;&lt;/li&gt;&lt;li style=&quot;text-align: left;&quot;&gt;&lt;span style=&quot;font-size: 10px;&quot;&gt;Truncate &amp;amp; Insert&lt;/span&gt;&lt;/li&gt;&lt;/ul&gt;&lt;div style=&quot;text-align: left;&quot;&gt;&lt;span style=&quot;font-size: 10px;&quot;&gt;&lt;b&gt;Transformations:&amp;nbsp;&lt;/b&gt;&lt;/span&gt;&lt;/div&gt;&lt;div style=&quot;text-align: left;&quot;&gt;&lt;ul&gt;&lt;li&gt;&lt;span style=&quot;font-size: 10px;&quot;&gt;Data Cleansing&lt;/span&gt;&lt;/li&gt;&lt;li&gt;&lt;span style=&quot;font-size: 10px;&quot;&gt;Data Standarization&lt;/span&gt;&lt;/li&gt;&lt;li&gt;&lt;span style=&quot;font-size: 10px;&quot;&gt;Data Normalization&lt;/span&gt;&lt;/li&gt;&lt;li&gt;&lt;span style=&quot;font-size: 10px;&quot;&gt;Derived Columns&lt;/span&gt;&lt;/li&gt;&lt;li&gt;&lt;span style=&quot;font-size: 10px;&quot;&gt;Data Enrichment&lt;/span&gt;&lt;/li&gt;&lt;/ul&gt;&lt;/div&gt;&lt;div style=&quot;text-align: left;&quot;&gt;&lt;span style=&quot;font-size: 10px;&quot;&gt;&lt;b&gt;Data Model: &lt;/b&gt;None (as-is)&lt;/span&gt;&lt;/div&gt;&lt;/div&gt;" style="text;strokeColor=none;fillColor=none;html=1;align=center;verticalAlign=middle;whiteSpace=wrap;rounded=0;fontSize=16;" vertex="1" parent="1">
          <mxGeometry x="490" y="585" width="130" height="20" as="geometry" />
        </mxCell>
        <mxCell id="T4MmilMiT0-tr1rLzZQM-47" value="&lt;div style=&quot;text-align: left;&quot;&gt;&lt;b style=&quot;font-size: 10px; background-color: transparent; color: light-dark(rgb(0, 0, 0), rgb(255, 255, 255));&quot;&gt;Object Type&lt;/b&gt;&lt;span style=&quot;font-size: 10px; background-color: transparent; color: light-dark(rgb(0, 0, 0), rgb(255, 255, 255));&quot;&gt;: Tables&lt;/span&gt;&lt;/div&gt;&lt;div style=&quot;text-align: left;&quot;&gt;&lt;font style=&quot;font-size: 10px;&quot;&gt;&lt;br&gt;&lt;/font&gt;&lt;/div&gt;&lt;div style=&quot;text-align: left;&quot;&gt;&lt;span style=&quot;font-size: 10px;&quot;&gt;&lt;b&gt;No Load&amp;nbsp;&lt;/b&gt;&lt;/span&gt;&lt;/div&gt;&lt;div style=&quot;&quot;&gt;&lt;div style=&quot;text-align: left;&quot;&gt;&lt;span style=&quot;font-size: 10px;&quot;&gt;&lt;b&gt;Transformations:&amp;nbsp;&lt;/b&gt;&lt;/span&gt;&lt;/div&gt;&lt;div style=&quot;text-align: left;&quot;&gt;&lt;ul&gt;&lt;li&gt;&lt;span style=&quot;font-size: 10px;&quot;&gt;Data Integrations&lt;/span&gt;&lt;/li&gt;&lt;li&gt;&lt;span style=&quot;font-size: 10px;&quot;&gt;Aggregations&lt;/span&gt;&lt;/li&gt;&lt;li&gt;&lt;span style=&quot;font-size: 10px;&quot;&gt;Business Logics&lt;/span&gt;&lt;/li&gt;&lt;/ul&gt;&lt;/div&gt;&lt;div style=&quot;text-align: left;&quot;&gt;&lt;span style=&quot;font-size: 10px;&quot;&gt;&lt;b&gt;Data Model:&amp;nbsp;&lt;/b&gt;&lt;/span&gt;&lt;/div&gt;&lt;div style=&quot;text-align: left;&quot;&gt;&lt;ul&gt;&lt;li&gt;&lt;span style=&quot;font-size: 10px;&quot;&gt;Star Schema&lt;/span&gt;&lt;/li&gt;&lt;li&gt;&lt;span style=&quot;font-size: 10px;&quot;&gt;Flat Table&lt;/span&gt;&lt;/li&gt;&lt;li&gt;&lt;span style=&quot;font-size: 10px;&quot;&gt;Aggregated Table&lt;/span&gt;&lt;/li&gt;&lt;/ul&gt;&lt;/div&gt;&lt;/div&gt;" style="text;strokeColor=none;fillColor=none;html=1;align=center;verticalAlign=middle;whiteSpace=wrap;rounded=0;fontSize=16;" vertex="1" parent="1">
          <mxGeometry x="765" y="565" width="130" height="20" as="geometry" />
        </mxCell>
        <mxCell id="T4MmilMiT0-tr1rLzZQM-48" value="BI &amp;amp; Reporting" style="image;aspect=fixed;html=1;points=[];align=center;fontSize=12;image=img/lib/azure2/analytics/Power_BI_Embedded.svg;" vertex="1" parent="1">
          <mxGeometry x="1020" y="150" width="51" height="68" as="geometry" />
        </mxCell>
        <mxCell id="T4MmilMiT0-tr1rLzZQM-49" value="Ad-Hoc&lt;div&gt;SQL Queries&lt;/div&gt;" style="sketch=0;points=[[0,0,0],[0.25,0,0],[0.5,0,0],[0.75,0,0],[1,0,0],[0,1,0],[0.25,1,0],[0.5,1,0],[0.75,1,0],[1,1,0],[0,0.25,0],[0,0.5,0],[0,0.75,0],[1,0.25,0],[1,0.5,0],[1,0.75,0]];outlineConnect=0;fontColor=#232F3E;fillColor=#8C4FFF;strokeColor=#ffffff;dashed=0;verticalLabelPosition=bottom;verticalAlign=top;align=center;html=1;fontSize=12;fontStyle=0;aspect=fixed;shape=mxgraph.aws4.resourceIcon;resIcon=mxgraph.aws4.sql_workbench;" vertex="1" parent="1">
          <mxGeometry x="1012" y="276" width="78" height="78" as="geometry" />
        </mxCell>
        <mxCell id="T4MmilMiT0-tr1rLzZQM-50" value="Machine Learning" style="sketch=0;outlineConnect=0;fontColor=#232F3E;gradientColor=none;fillColor=#7AA116;strokeColor=none;dashed=0;verticalLabelPosition=bottom;verticalAlign=top;align=center;html=1;fontSize=12;fontStyle=0;aspect=fixed;pointerEvents=1;shape=mxgraph.aws4.iot_greengrass_component_machine_learning;" vertex="1" parent="1">
          <mxGeometry x="1006.5" y="440" width="78" height="78" as="geometry" />
        </mxCell>
      </root>
    </mxGraphModel>
  </diagram>
</mxfile>
